<?xml version="1.0" encoding="UTF-8"?>
<svg id="Layer_1" data-name="Layer 1" xmlns="http://www.w3.org/2000/svg" xmlns:xlink="http://www.w3.org/1999/xlink" viewBox="0 0 52.9 84.18">
  <defs>
    <style>
      .cls-1 {
        fill: none;
      }

      .cls-2 {
        fill: #2359a8;
      }

      .cls-3 {
        clip-path: url(#clippath);
      }
    </style>
    <clipPath id="clippath">
      <rect class="cls-1" width="52.9" height="84.18"/>
    </clipPath>
  </defs>
  <g class="cls-3">
    <path class="cls-2" d="M19.63,52.93c1.09,0,1.97.88,1.97,1.88v6.5c0,1.12-.88,2-1.97,2H2c-1.09,0-1.97-.88-1.97-2v-6.5c0-1,.88-1.88,1.97-1.88h17.63Z"/>
    <path class="cls-2" d="M19.63,20.93c1.09,0,1.97.88,1.97,2v6.5c0,1-.88,1.88-1.97,1.88H2c-1.09,0-1.97-.88-1.97-1.88v-6.5c0-1.12.88-2,1.97-2h17.63Z"/>
    <path class="cls-2" d="M30.06,31.43c1.09,0,1.97.88,1.97,1.88v17.62c0,1.12-.88,2-1.97,2h-6.49c-1.09,0-1.97-.88-1.97-2v-17.62c0-1,.88-1.88,1.97-1.88h6.49Z"/>
    <path class="cls-2" d="M32,82.21c0,1.09-.88,1.97-1.88,1.97H2c-1.12,0-2-.88-2-1.97v-6.49c0-1.09.88-1.97,2-1.97h28.12c1,0,1.88.88,1.88,1.97v6.49Z"/>
    <path class="cls-2" d="M32,1.97C32,.88,31.12,0,30.12,0H2C.88,0,0,.88,0,1.97v6.5c0,1.09.88,1.97,2,1.97h28.12c1,0,1.88-.88,1.88-1.97V1.97Z"/>
    <path class="cls-2" d="M50.93,20.93c1.09,0,1.97.88,1.97,2v38.5c0,1.12-.88,2-1.97,2h-6.49c-1.09,0-1.97-.88-1.97-2V22.93c0-1.12.88-2,1.97-2h6.49Z"/>
    <path class="cls-2" d="M42.5,65.28c0-1.09-.88-1.97-2-1.97h-6.5c-1,0-1.88.88-1.88,1.97v6.49c0,1.09.88,1.97,1.88,1.97h6.5c1.12,0,2-.88,2-1.97v-6.49Z"/>
    <path class="cls-2" d="M42.5,18.9c0,1.09-.88,1.97-2,1.97h-6.5c-1,0-1.88-.88-1.88-1.97v-6.5c0-1.09.88-1.97,1.88-1.97h6.5c1.12,0,2,.88,2,1.97v6.5Z"/>
  </g>
</svg>